<svg width="19" height="19" viewBox="0 0 19 19" fill="none" xmlns="http://www.w3.org/2000/svg">
  <path
    d="M2.86847 18.9198C2.23875 18.9198 1.70215 18.6981 1.25867 18.2546C0.815186 17.8111 0.593445 17.2745 0.593445 16.6448V2.78827C0.593445 2.15855 0.815186 1.62195 1.25867 1.17847C1.70215 0.734986 2.23875 0.513245 2.86847 0.513245H9.79672V2.78827H2.86847V16.6448H16.725V9.71652H19V16.6448C19 17.2745 18.7783 17.8111 18.3348 18.2546C17.8913 18.6981 17.3547 18.9198 16.725 18.9198H2.86847ZM7.68204 13.4165L6.09672 11.8312L15.1396 2.78827H11.7967V0.513245H19V7.71652H16.725V4.37359L7.68204 13.4165Z"
    fill="black" />
</svg>