<svg width="117" height="18" viewBox="0 0 117 18" fill="none" xmlns="http://www.w3.org/2000/svg">
<path d="M0.818 14.666C0.65 14.666 0.566 14.582 0.566 14.414V0.608C0.566 0.44 0.65 0.356 0.818 0.356H2.942C3.11 0.356 3.194 0.44 3.194 0.608V6.08H9.818V0.608C9.818 0.44 9.902 0.356 10.07 0.356H12.194C12.362 0.356 12.446 0.44 12.446 0.608V14.414C12.446 14.582 12.362 14.666 12.194 14.666H10.07C9.902 14.666 9.818 14.582 9.818 14.414V8.564H3.194V14.414C3.194 14.582 3.11 14.666 2.942 14.666H0.818ZM19.8617 14.864C19.0697 14.864 18.3557 14.732 17.7197 14.468C17.0837 14.216 16.5437 13.862 16.0997 13.406C15.6677 12.938 15.3317 12.386 15.0917 11.75C14.8637 11.102 14.7497 10.394 14.7497 9.626C14.7497 8.858 14.8637 8.156 15.0917 7.52C15.3317 6.872 15.6677 6.314 16.0997 5.846C16.5437 5.378 17.0837 5.018 17.7197 4.766C18.3557 4.502 19.0697 4.37 19.8617 4.37C20.6417 4.37 21.3317 4.508 21.9317 4.784C22.5317 5.06 23.0357 5.45 23.4437 5.954C23.8517 6.458 24.1577 7.07 24.3617 7.79C24.5657 8.498 24.6557 9.284 24.6317 10.148C24.6077 10.316 24.5177 10.4 24.3617 10.4H17.4497C17.5697 11.096 17.8337 11.642 18.2417 12.038C18.6497 12.422 19.1957 12.614 19.8797 12.614C20.8877 12.614 21.6257 12.23 22.0937 11.462C22.1777 11.354 22.2917 11.318 22.4357 11.354L24.1637 11.948C24.3317 12.02 24.3797 12.134 24.3077 12.29C23.8517 13.178 23.2277 13.826 22.4357 14.234C21.6557 14.654 20.7977 14.864 19.8617 14.864ZM21.9317 8.51C21.8117 7.91 21.5657 7.448 21.1937 7.124C20.8337 6.788 20.3837 6.62 19.8437 6.62C19.2437 6.62 18.7397 6.782 18.3317 7.106C17.9237 7.43 17.6417 7.898 17.4857 8.51H21.9317ZM26.7754 14.666C26.6074 14.666 26.5234 14.582 26.5234 14.414V0.301999C26.5234 0.133999 26.6074 0.0499994 26.7754 0.0499994H28.7914C28.9594 0.0499994 29.0434 0.133999 29.0434 0.301999V14.414C29.0434 14.582 28.9594 14.666 28.7914 14.666H26.7754ZM31.961 14.666C31.793 14.666 31.709 14.582 31.709 14.414V0.301999C31.709 0.133999 31.793 0.0499994 31.961 0.0499994H33.977C34.145 0.0499994 34.229 0.133999 34.229 0.301999V14.414C34.229 14.582 34.145 14.666 33.977 14.666H31.961ZM41.6465 14.864C40.8425 14.864 40.1105 14.732 39.4505 14.468C38.7905 14.216 38.2265 13.862 37.7585 13.406C37.2905 12.938 36.9305 12.386 36.6785 11.75C36.4265 11.102 36.3005 10.394 36.3005 9.626C36.3005 8.858 36.4265 8.156 36.6785 7.52C36.9305 6.872 37.2905 6.314 37.7585 5.846C38.2265 5.378 38.7905 5.018 39.4505 4.766C40.1105 4.502 40.8425 4.37 41.6465 4.37C42.4625 4.37 43.1945 4.502 43.8425 4.766C44.5025 5.018 45.0665 5.378 45.5345 5.846C46.0025 6.314 46.3625 6.872 46.6145 7.52C46.8665 8.156 46.9925 8.858 46.9925 9.626C46.9925 10.394 46.8665 11.102 46.6145 11.75C46.3625 12.386 46.0025 12.938 45.5345 13.406C45.0665 13.862 44.5025 14.216 43.8425 14.468C43.1945 14.732 42.4625 14.864 41.6465 14.864ZM41.6465 12.56C42.0545 12.56 42.4265 12.488 42.7625 12.344C43.0985 12.2 43.3865 12.002 43.6265 11.75C43.8665 11.486 44.0525 11.174 44.1845 10.814C44.3165 10.454 44.3825 10.058 44.3825 9.626C44.3825 9.194 44.3165 8.798 44.1845 8.438C44.0525 8.066 43.8665 7.754 43.6265 7.502C43.3865 7.238 43.0985 7.034 42.7625 6.89C42.4265 6.746 42.0545 6.674 41.6465 6.674C41.2385 6.674 40.8665 6.746 40.5305 6.89C40.1945 7.034 39.9065 7.238 39.6665 7.502C39.4265 7.754 39.2405 8.066 39.1085 8.438C38.9765 8.798 38.9105 9.194 38.9105 9.626C38.9105 10.058 38.9765 10.454 39.1085 10.814C39.2405 11.174 39.4265 11.486 39.6665 11.75C39.9065 12.002 40.1945 12.2 40.5305 12.344C40.8665 12.488 41.2385 12.56 41.6465 12.56ZM48.6132 17.816C48.5172 17.816 48.4452 17.792 48.3972 17.744C48.3612 17.696 48.3612 17.624 48.3972 17.528L49.3512 14.666C49.1112 14.534 48.9192 14.354 48.7752 14.126C48.6432 13.898 48.5772 13.628 48.5772 13.316C48.5772 12.86 48.7272 12.494 49.0272 12.218C49.3272 11.93 49.7052 11.786 50.1612 11.786C50.6172 11.786 50.9952 11.93 51.2952 12.218C51.5952 12.494 51.7452 12.86 51.7452 13.316C51.7452 13.46 51.7272 13.61 51.6912 13.766C51.6672 13.91 51.6192 14.078 51.5472 14.27C51.4872 14.462 51.4032 14.684 51.2952 14.936C51.1872 15.2 51.0492 15.518 50.8812 15.89L50.1072 17.636C50.0472 17.756 49.9512 17.816 49.8192 17.816H48.6132ZM60.8121 14.666C60.6441 14.666 60.5601 14.582 60.5601 14.414V0.608C60.5601 0.44 60.6441 0.356 60.8121 0.356H63.0441C63.1761 0.356 63.2841 0.416 63.3681 0.536L69.7581 10.418V0.608C69.7581 0.44 69.8421 0.356 70.0101 0.356H72.0441C72.2121 0.356 72.2961 0.44 72.2961 0.608V14.414C72.2961 14.582 72.2121 14.666 72.0441 14.666H69.8121C69.6801 14.666 69.5781 14.606 69.5061 14.486L63.0801 4.586V14.414C63.0801 14.582 62.9961 14.666 62.8281 14.666H60.8121ZM79.9317 14.864C79.1277 14.864 78.3957 14.732 77.7357 14.468C77.0757 14.216 76.5117 13.862 76.0437 13.406C75.5757 12.938 75.2157 12.386 74.9637 11.75C74.7117 11.102 74.5857 10.394 74.5857 9.626C74.5857 8.858 74.7117 8.156 74.9637 7.52C75.2157 6.872 75.5757 6.314 76.0437 5.846C76.5117 5.378 77.0757 5.018 77.7357 4.766C78.3957 4.502 79.1277 4.37 79.9317 4.37C80.7477 4.37 81.4797 4.502 82.1277 4.766C82.7877 5.018 83.3517 5.378 83.8197 5.846C84.2877 6.314 84.6477 6.872 84.8997 7.52C85.1517 8.156 85.2777 8.858 85.2777 9.626C85.2777 10.394 85.1517 11.102 84.8997 11.75C84.6477 12.386 84.2877 12.938 83.8197 13.406C83.3517 13.862 82.7877 14.216 82.1277 14.468C81.4797 14.732 80.7477 14.864 79.9317 14.864ZM79.9317 12.56C80.3397 12.56 80.7117 12.488 81.0477 12.344C81.3837 12.2 81.6717 12.002 81.9117 11.75C82.1517 11.486 82.3377 11.174 82.4697 10.814C82.6017 10.454 82.6677 10.058 82.6677 9.626C82.6677 9.194 82.6017 8.798 82.4697 8.438C82.3377 8.066 82.1517 7.754 81.9117 7.502C81.6717 7.238 81.3837 7.034 81.0477 6.89C80.7117 6.746 80.3397 6.674 79.9317 6.674C79.5237 6.674 79.1517 6.746 78.8157 6.89C78.4797 7.034 78.1917 7.238 77.9517 7.502C77.7117 7.754 77.5257 8.066 77.3937 8.438C77.2617 8.798 77.1957 9.194 77.1957 9.626C77.1957 10.058 77.2617 10.454 77.3937 10.814C77.5257 11.174 77.7117 11.486 77.9517 11.75C78.1917 12.002 78.4797 12.2 78.8157 12.344C79.1517 12.488 79.5237 12.56 79.9317 12.56ZM90.9617 14.864C89.8577 14.864 88.9277 14.636 88.1717 14.18C87.4277 13.724 86.8937 13.052 86.5697 12.164C86.5577 12.14 86.5517 12.11 86.5517 12.074C86.5517 11.966 86.6177 11.894 86.7497 11.858L88.5317 11.372L88.6037 11.354C88.7237 11.354 88.8017 11.414 88.8377 11.534C89.0777 11.942 89.3657 12.224 89.7017 12.38C90.0497 12.536 90.4397 12.614 90.8717 12.614C91.2917 12.614 91.6397 12.566 91.9157 12.47C92.2037 12.362 92.3477 12.164 92.3477 11.876C92.3477 11.66 92.2337 11.486 92.0057 11.354C91.7777 11.21 91.3937 11.06 90.8537 10.904L90.3677 10.76C89.1557 10.412 88.2917 9.95 87.7757 9.374C87.2597 8.786 87.0017 8.108 87.0017 7.34C87.0017 6.908 87.0917 6.512 87.2717 6.152C87.4637 5.78 87.7277 5.468 88.0637 5.216C88.4117 4.952 88.8197 4.748 89.2877 4.604C89.7557 4.448 90.2777 4.37 90.8537 4.37C91.8257 4.37 92.6477 4.58 93.3197 5C93.9917 5.408 94.4837 6.044 94.7957 6.908C94.8197 6.956 94.8317 6.998 94.8317 7.034C94.8317 7.13 94.7717 7.19 94.6517 7.214L92.8697 7.79C92.8457 7.802 92.8097 7.808 92.7617 7.808C92.6777 7.808 92.6057 7.754 92.5457 7.646C92.3657 7.334 92.1377 7.088 91.8617 6.908C91.5857 6.716 91.2317 6.62 90.7997 6.62C90.4757 6.62 90.1937 6.674 89.9537 6.782C89.7257 6.89 89.6117 7.076 89.6117 7.34C89.6117 7.58 89.7317 7.778 89.9717 7.934C90.2117 8.078 90.6137 8.216 91.1777 8.348L91.6457 8.474C92.2697 8.63 92.7917 8.816 93.2117 9.032C93.6317 9.236 93.9677 9.476 94.2197 9.752C94.4837 10.028 94.6697 10.34 94.7777 10.688C94.8977 11.024 94.9577 11.402 94.9577 11.822C94.9577 12.29 94.8557 12.71 94.6517 13.082C94.4597 13.454 94.1837 13.772 93.8237 14.036C93.4757 14.3 93.0557 14.504 92.5637 14.648C92.0717 14.792 91.5377 14.864 90.9617 14.864ZM101.217 14.864C100.125 14.864 99.2849 14.528 98.6969 13.856C98.1209 13.172 97.8329 12.14 97.8329 10.76V6.836H96.3569C96.1889 6.836 96.1049 6.752 96.1049 6.584V4.82C96.1049 4.652 96.1889 4.568 96.3569 4.568H97.8329V1.85C97.8329 1.682 97.9169 1.598 98.0849 1.598H100.119C100.287 1.598 100.371 1.682 100.371 1.85V4.568H102.765C102.933 4.568 103.017 4.652 103.017 4.82V6.584C103.017 6.752 102.933 6.836 102.765 6.836H100.371V10.922C100.371 11.474 100.461 11.888 100.641 12.164C100.821 12.428 101.109 12.56 101.505 12.56C101.817 12.56 102.069 12.398 102.261 12.074C102.345 11.918 102.459 11.876 102.603 11.948L104.133 12.632C104.229 12.692 104.277 12.764 104.277 12.848C104.277 12.92 104.253 12.986 104.205 13.046C103.845 13.718 103.401 14.186 102.873 14.45C102.345 14.726 101.793 14.864 101.217 14.864ZM105.895 14.666C105.727 14.666 105.643 14.582 105.643 14.414V4.82C105.643 4.652 105.727 4.568 105.895 4.568H107.731C107.803 4.568 107.863 4.586 107.911 4.622C107.971 4.658 108.001 4.724 108.001 4.82L108.055 6.08C108.403 5.54 108.847 5.132 109.387 4.856C109.939 4.568 110.521 4.424 111.133 4.424C111.277 4.424 111.403 4.43 111.511 4.442C111.619 4.454 111.721 4.472 111.817 4.496C111.961 4.532 112.033 4.622 112.033 4.766V6.764C112.033 6.908 111.961 6.98 111.817 6.98C111.685 6.98 111.535 6.968 111.367 6.944C111.211 6.92 111.031 6.908 110.827 6.908C110.491 6.908 110.161 6.968 109.837 7.088C109.513 7.196 109.225 7.358 108.973 7.574C108.733 7.79 108.535 8.06 108.379 8.384C108.235 8.696 108.163 9.05 108.163 9.446V14.414C108.163 14.582 108.079 14.666 107.911 14.666H105.895ZM114.106 10.31C113.938 10.31 113.854 10.226 113.854 10.058L113.656 0.625999C113.656 0.457999 113.74 0.373999 113.908 0.373999H115.942C116.11 0.373999 116.194 0.457999 116.194 0.625999L115.996 10.058C115.996 10.226 115.912 10.31 115.744 10.31H114.106ZM114.97 14.864C114.514 14.864 114.136 14.72 113.836 14.432C113.536 14.144 113.386 13.772 113.386 13.316C113.386 12.86 113.536 12.494 113.836 12.218C114.136 11.93 114.514 11.786 114.97 11.786C115.426 11.786 115.804 11.93 116.104 12.218C116.404 12.494 116.554 12.86 116.554 13.316C116.554 13.772 116.404 14.144 116.104 14.432C115.804 14.72 115.426 14.864 114.97 14.864Z" fill="black"/>
</svg>
