<svg width="272" height="91" viewBox="0 0 272 91" fill="none" xmlns="http://www.w3.org/2000/svg">
<path d="M19.6911 90.5307C18.2296 91.2009 16.6149 89.96 16.8861 88.3753L25.8514 36.0016C26.1055 34.5172 27.8471 33.8356 29.0413 34.7532L68.3756 64.9789C69.5698 65.8965 69.3596 67.755 67.9906 68.3827L19.6911 90.5307Z" fill="black"/>
<path d="M237 2H35C17.0507 2 2.5 16.5507 2.5 34.5C2.5 52.4493 17.0507 67 35 67H237C254.949 67 269.5 52.4493 269.5 34.5C269.5 16.5507 254.949 2 237 2Z" fill="#DBBEFF"/>
<path d="M237 2H35C17.0507 2 2.5 16.5507 2.5 34.5C2.5 52.4493 17.0507 67 35 67H237C254.949 67 269.5 52.4493 269.5 34.5C269.5 16.5507 254.949 2 237 2Z" stroke="black" stroke-width="4"/>
<path d="M33.732 47.184C33.4333 47.184 33.284 47.0347 33.284 46.736V22.192C33.284 21.8933 33.4333 21.744 33.732 21.744H37.508C37.8067 21.744 37.956 21.8933 37.956 22.192V31.92H49.732V22.192C49.732 21.8933 49.8813 21.744 50.18 21.744H53.956C54.2547 21.744 54.404 21.8933 54.404 22.192V46.736C54.404 47.0347 54.2547 47.184 53.956 47.184H50.18C49.8813 47.184 49.732 47.0347 49.732 46.736V36.336H37.956V46.736C37.956 47.0347 37.8067 47.184 37.508 47.184H33.732ZM67.5875 47.536C66.1795 47.536 64.9102 47.3013 63.7795 46.832C62.6488 46.384 61.6888 45.7547 60.8995 44.944C60.1315 44.112 59.5342 43.1307 59.1075 42C58.7022 40.848 58.4995 39.5893 58.4995 38.224C58.4995 36.8587 58.7022 35.6107 59.1075 34.48C59.5342 33.328 60.1315 32.336 60.8995 31.504C61.6888 30.672 62.6488 30.032 63.7795 29.584C64.9102 29.1147 66.1795 28.88 67.5875 28.88C68.9742 28.88 70.2008 29.1253 71.2675 29.616C72.3342 30.1067 73.2302 30.8 73.9555 31.696C74.6808 32.592 75.2248 33.68 75.5875 34.96C75.9502 36.2187 76.1102 37.616 76.0675 39.152C76.0248 39.4507 75.8648 39.6 75.5875 39.6H63.2995C63.5128 40.8373 63.9822 41.808 64.7075 42.512C65.4328 43.1947 66.4035 43.536 67.6195 43.536C69.4115 43.536 70.7235 42.8533 71.5555 41.488C71.7048 41.296 71.9075 41.232 72.1635 41.296L75.2355 42.352C75.5342 42.48 75.6195 42.6827 75.4915 42.96C74.6808 44.5387 73.5715 45.6907 72.1635 46.416C70.7768 47.1627 69.2515 47.536 67.5875 47.536ZM71.2675 36.24C71.0542 35.1733 70.6168 34.352 69.9555 33.776C69.3155 33.1787 68.5155 32.88 67.5555 32.88C66.4888 32.88 65.5928 33.168 64.8675 33.744C64.1422 34.32 63.6408 35.152 63.3635 36.24H71.2675ZM79.8785 47.184C79.5798 47.184 79.4305 47.0347 79.4305 46.736V21.648C79.4305 21.3493 79.5798 21.2 79.8785 21.2H83.4625C83.7612 21.2 83.9105 21.3493 83.9105 21.648V46.736C83.9105 47.0347 83.7612 47.184 83.4625 47.184H79.8785ZM89.0973 47.184C88.7986 47.184 88.6493 47.0347 88.6493 46.736V21.648C88.6493 21.3493 88.7986 21.2 89.0973 21.2H92.681C92.98 21.2 93.129 21.3493 93.129 21.648V46.736C93.129 47.0347 92.98 47.184 92.681 47.184H89.0973ZM106.316 47.536C104.887 47.536 103.585 47.3013 102.412 46.832C101.239 46.384 100.236 45.7547 99.404 44.944C98.572 44.112 97.932 43.1307 97.484 42C97.036 40.848 96.812 39.5893 96.812 38.224C96.812 36.8587 97.036 35.6107 97.484 34.48C97.932 33.328 98.572 32.336 99.404 31.504C100.236 30.672 101.239 30.032 102.412 29.584C103.585 29.1147 104.887 28.88 106.316 28.88C107.767 28.88 109.068 29.1147 110.22 29.584C111.393 30.032 112.396 30.672 113.228 31.504C114.06 32.336 114.7 33.328 115.148 34.48C115.596 35.6107 115.82 36.8587 115.82 38.224C115.82 39.5893 115.596 40.848 115.148 42C114.7 43.1307 114.06 44.112 113.228 44.944C112.396 45.7547 111.393 46.384 110.22 46.832C109.068 47.3013 107.767 47.536 106.316 47.536ZM106.316 43.44C107.041 43.44 107.703 43.312 108.3 43.056C108.897 42.8 109.409 42.448 109.836 42C110.263 41.5307 110.593 40.976 110.828 40.336C111.063 39.696 111.18 38.992 111.18 38.224C111.18 37.456 111.063 36.752 110.828 36.112C110.593 35.4507 110.263 34.896 109.836 34.448C109.409 33.9787 108.897 33.616 108.3 33.36C107.703 33.104 107.041 32.976 106.316 32.976C105.591 32.976 104.929 33.104 104.332 33.36C103.735 33.616 103.223 33.9787 102.796 34.448C102.369 34.896 102.039 35.4507 101.804 36.112C101.569 36.752 101.452 37.456 101.452 38.224C101.452 38.992 101.569 39.696 101.804 40.336C102.039 40.976 102.369 41.5307 102.796 42C103.223 42.448 103.735 42.8 104.332 43.056C104.929 43.312 105.591 43.44 106.316 43.44ZM118.701 52.784C118.531 52.784 118.403 52.7413 118.317 52.656C118.253 52.5707 118.253 52.4427 118.317 52.272L120.013 47.184C119.587 46.9493 119.245 46.6293 118.989 46.224C118.755 45.8187 118.637 45.3387 118.637 44.784C118.637 43.9733 118.904 43.3227 119.437 42.832C119.971 42.32 120.643 42.064 121.453 42.064C122.264 42.064 122.936 42.32 123.469 42.832C124.003 43.3227 124.269 43.9733 124.269 44.784C124.269 45.04 124.237 45.3067 124.173 45.584C124.131 45.84 124.045 46.1387 123.917 46.48C123.811 46.8213 123.661 47.216 123.469 47.664C123.277 48.1333 123.032 48.6987 122.733 49.36L121.357 52.464C121.251 52.6773 121.08 52.784 120.845 52.784H118.701ZM140.388 47.184C140.09 47.184 139.94 47.0347 139.94 46.736V22.192C139.94 21.8933 140.09 21.744 140.388 21.744H144.356C144.591 21.744 144.783 21.8507 144.932 22.064L156.292 39.632V22.192C156.292 21.8933 156.442 21.744 156.74 21.744H160.356C160.655 21.744 160.804 21.8933 160.804 22.192V46.736C160.804 47.0347 160.655 47.184 160.356 47.184H156.388C156.154 47.184 155.972 47.0773 155.844 46.864L144.42 29.264V46.736C144.42 47.0347 144.271 47.184 143.972 47.184H140.388ZM174.379 47.536C172.949 47.536 171.648 47.3013 170.475 46.832C169.301 46.384 168.299 45.7547 167.467 44.944C166.635 44.112 165.995 43.1307 165.547 42C165.099 40.848 164.875 39.5893 164.875 38.224C164.875 36.8587 165.099 35.6107 165.547 34.48C165.995 33.328 166.635 32.336 167.467 31.504C168.299 30.672 169.301 30.032 170.475 29.584C171.648 29.1147 172.949 28.88 174.379 28.88C175.829 28.88 177.131 29.1147 178.283 29.584C179.456 30.032 180.459 30.672 181.291 31.504C182.123 32.336 182.763 33.328 183.211 34.48C183.659 35.6107 183.883 36.8587 183.883 38.224C183.883 39.5893 183.659 40.848 183.211 42C182.763 43.1307 182.123 44.112 181.291 44.944C180.459 45.7547 179.456 46.384 178.283 46.832C177.131 47.3013 175.829 47.536 174.379 47.536ZM174.379 43.44C175.104 43.44 175.765 43.312 176.363 43.056C176.96 42.8 177.472 42.448 177.899 42C178.325 41.5307 178.656 40.976 178.891 40.336C179.125 39.696 179.243 38.992 179.243 38.224C179.243 37.456 179.125 36.752 178.891 36.112C178.656 35.4507 178.325 34.896 177.899 34.448C177.472 33.9787 176.96 33.616 176.363 33.36C175.765 33.104 175.104 32.976 174.379 32.976C173.653 32.976 172.992 33.104 172.395 33.36C171.797 33.616 171.285 33.9787 170.859 34.448C170.432 34.896 170.101 35.4507 169.867 36.112C169.632 36.752 169.515 37.456 169.515 38.224C169.515 38.992 169.632 39.696 169.867 40.336C170.101 40.976 170.432 41.5307 170.859 42C171.285 42.448 171.797 42.8 172.395 43.056C172.992 43.312 173.653 43.44 174.379 43.44ZM193.988 47.536C192.025 47.536 190.372 47.1307 189.028 46.32C187.705 45.5093 186.756 44.3147 186.18 42.736C186.158 42.6933 186.148 42.64 186.148 42.576C186.148 42.384 186.265 42.256 186.5 42.192L189.668 41.328L189.796 41.296C190.009 41.296 190.148 41.4027 190.212 41.616C190.638 42.3413 191.15 42.8427 191.748 43.12C192.366 43.3973 193.06 43.536 193.828 43.536C194.574 43.536 195.193 43.4507 195.684 43.28C196.196 43.088 196.452 42.736 196.452 42.224C196.452 41.84 196.249 41.5307 195.844 41.296C195.438 41.04 194.756 40.7733 193.796 40.496L192.932 40.24C190.777 39.6213 189.241 38.8 188.324 37.776C187.406 36.7307 186.948 35.5253 186.948 34.16C186.948 33.392 187.108 32.688 187.428 32.048C187.769 31.3867 188.238 30.832 188.836 30.384C189.454 29.9147 190.18 29.552 191.012 29.296C191.844 29.0187 192.772 28.88 193.796 28.88C195.524 28.88 196.985 29.2533 198.18 30C199.374 30.7253 200.249 31.856 200.804 33.392C200.846 33.4773 200.868 33.552 200.868 33.616C200.868 33.7867 200.761 33.8933 200.548 33.936L197.38 34.96C197.337 34.9813 197.273 34.992 197.188 34.992C197.038 34.992 196.91 34.896 196.804 34.704C196.484 34.1493 196.078 33.712 195.588 33.392C195.097 33.0507 194.468 32.88 193.7 32.88C193.124 32.88 192.622 32.976 192.196 33.168C191.79 33.36 191.588 33.6907 191.588 34.16C191.588 34.5867 191.801 34.9387 192.228 35.216C192.654 35.472 193.369 35.7173 194.372 35.952L195.204 36.176C196.313 36.4533 197.241 36.784 197.988 37.168C198.734 37.5307 199.332 37.9573 199.78 38.448C200.249 38.9387 200.58 39.4933 200.772 40.112C200.985 40.7093 201.092 41.3813 201.092 42.128C201.092 42.96 200.91 43.7067 200.548 44.368C200.206 45.0293 199.716 45.5947 199.076 46.064C198.457 46.5333 197.71 46.896 196.836 47.152C195.961 47.408 195.012 47.536 193.988 47.536ZM212.219 47.536C210.278 47.536 208.784 46.9387 207.739 45.744C206.715 44.528 206.203 42.6933 206.203 40.24V33.264H203.579C203.28 33.264 203.131 33.1147 203.131 32.816V29.68C203.131 29.3813 203.28 29.232 203.579 29.232H206.203V24.4C206.203 24.1013 206.352 23.952 206.651 23.952H210.267C210.566 23.952 210.715 24.1013 210.715 24.4V29.232H214.971C215.27 29.232 215.419 29.3813 215.419 29.68V32.816C215.419 33.1147 215.27 33.264 214.971 33.264H210.715V40.528C210.715 41.5093 210.875 42.2453 211.195 42.736C211.515 43.2053 212.027 43.44 212.731 43.44C213.286 43.44 213.734 43.152 214.075 42.576C214.224 42.2987 214.427 42.224 214.683 42.352L217.403 43.568C217.574 43.6747 217.659 43.8027 217.659 43.952C217.659 44.08 217.616 44.1973 217.531 44.304C216.891 45.4987 216.102 46.3307 215.163 46.8C214.224 47.2907 213.243 47.536 212.219 47.536ZM220.535 47.184C220.236 47.184 220.087 47.0347 220.087 46.736V29.68C220.087 29.3813 220.236 29.232 220.535 29.232H223.799C223.927 29.232 224.033 29.264 224.119 29.328C224.225 29.392 224.279 29.5093 224.279 29.68L224.375 31.92C224.993 30.96 225.783 30.2347 226.743 29.744C227.724 29.232 228.759 28.976 229.847 28.976C230.103 28.976 230.327 28.9867 230.519 29.008C230.711 29.0293 230.892 29.0613 231.063 29.104C231.319 29.168 231.447 29.328 231.447 29.584V33.136C231.447 33.392 231.319 33.52 231.063 33.52C230.828 33.52 230.561 33.4987 230.263 33.456C229.985 33.4133 229.665 33.392 229.303 33.392C228.705 33.392 228.119 33.4987 227.543 33.712C226.967 33.904 226.455 34.192 226.007 34.576C225.58 34.96 225.228 35.44 224.951 36.016C224.695 36.5707 224.567 37.2 224.567 37.904V46.736C224.567 47.0347 224.417 47.184 224.119 47.184H220.535ZM235.132 39.44C234.834 39.44 234.684 39.2907 234.684 38.992L234.332 22.224C234.332 21.9253 234.482 21.776 234.78 21.776H238.396C238.695 21.776 238.844 21.9253 238.844 22.224L238.492 38.992C238.492 39.2907 238.343 39.44 238.044 39.44H235.132ZM236.668 47.536C235.858 47.536 235.186 47.28 234.652 46.768C234.119 46.256 233.852 45.5947 233.852 44.784C233.852 43.9733 234.119 43.3227 234.652 42.832C235.186 42.32 235.858 42.064 236.668 42.064C237.479 42.064 238.151 42.32 238.684 42.832C239.218 43.3227 239.484 43.9733 239.484 44.784C239.484 45.5947 239.218 46.256 238.684 46.768C238.151 47.28 237.479 47.536 236.668 47.536Z" fill="black"/>
</svg>
